<svg xmlns="http://www.w3.org/2000/svg" width="39.726" height="37.237" viewBox="0 0 39.726 37.237">
  <g id="moon" transform="translate(0.25 0.25)">
    <g id="Group_5483" data-name="Group 5483" transform="translate(16.75 5.777)">
      <g id="Group_5482" data-name="Group 5482">
        <path id="Path_1306" data-name="Path 1306" d="M170.053,74.229a.909.909,0,0,0-.631-.2h-3.44l3.235-3.612.3-.336.156-.2a1.088,1.088,0,0,0,.131-.246.819.819,0,0,0,.057-.295.614.614,0,0,0-.3-.59,1.826,1.826,0,0,0-.86-.164h-4.021a.884.884,0,0,0-.6.18.606.606,0,0,0-.213.483q0,.418.278.508a2.629,2.629,0,0,0,.819.1h2.621q-.164.229-.426.541l-.672.753-.909.983-1.056,1.171q-.549.614-.721.819a.77.77,0,0,0,.074,1.056,1.114,1.114,0,0,0,.753.221h4.783a.933.933,0,0,0,.639-.188.623.623,0,0,0,.213-.483A.655.655,0,0,0,170.053,74.229Z" transform="translate(-163.629 -68.592)" fill="#94645f"/>
        <path id="Path_1306_-_Outline" data-name="Path 1306 - Outline" d="M164.549,75.661a1.372,1.372,0,0,1-.821-.275l-.019-.015a1.02,1.02,0,0,1-.1-1.4c.118-.14.362-.418.727-.827l1.057-1.172.911-.985.666-.747.105-.127h-2.107a2.882,2.882,0,0,1-.892-.108l-.009,0a.69.69,0,0,1-.451-.741.851.851,0,0,1,.3-.678l.01-.008a1.14,1.14,0,0,1,.758-.232H168.7a2.09,2.09,0,0,1,.971.187l.021.011a.867.867,0,0,1,.427.819,1.064,1.064,0,0,1-.075.374,1.329,1.329,0,0,1-.16.3l-.008.01-.166.209-.3.336-2.861,3.194h2.872a1.163,1.163,0,0,1,.795.251l.013.011a.9.9,0,0,1,.294.694.87.87,0,0,1-.3.67l-.013.01a1.19,1.19,0,0,1-.717.242h0l-.082,0h-4.765C164.61,75.66,164.579,75.661,164.549,75.661Zm-.51-.666a.869.869,0,0,0,.574.164h4.821a.686.686,0,0,0,.461-.133.372.372,0,0,0,.122-.284v-.015a.4.4,0,0,0-.126-.308.662.662,0,0,0-.451-.137h-4.016l3.906-4.359.146-.185a.838.838,0,0,0,.1-.184.572.572,0,0,0,.041-.208v-.022a.365.365,0,0,0-.17-.344,1.585,1.585,0,0,0-.73-.136h-4.051a.638.638,0,0,0-.423.125.354.354,0,0,0-.12.28v.009c0,.225.07.258.1.269a2.379,2.379,0,0,0,.737.088h3.116l-.283.4c-.113.158-.26.345-.438.556l0,.005-.672.753-.912.986-1.054,1.169c-.361.4-.6.678-.715.812A.519.519,0,0,0,164.039,74.995Z" transform="translate(-163.629 -68.592)" fill="#94645f"/>
      </g>
    </g>
    <g id="Group_5485" data-name="Group 5485" transform="translate(25.338 11.06)">
      <g id="Group_5484" data-name="Group 5484">
        <path id="Path_1307" data-name="Path 1307" d="M252.6,124.736a.721.721,0,0,0-.508-.156h-2.752l2.58-2.883.246-.27.156-.188a.861.861,0,0,0,.106-.2.655.655,0,0,0,.049-.237.491.491,0,0,0-.237-.475,1.458,1.458,0,0,0-.688-.131h-3.243a.712.712,0,0,0-.475.147.483.483,0,0,0-.172.385q0,.328.221.409a2.09,2.09,0,0,0,.655.074h2.1a4.858,4.858,0,0,1-.344.434l-.54.606-.7.819-.819.934q-.442.491-.581.672a.614.614,0,0,0,.057.819.884.884,0,0,0,.6.172h3.8a.745.745,0,0,0,.508-.147.5.5,0,0,0,.164-.385A.524.524,0,0,0,252.6,124.736Z" transform="translate(-247.516 -120.197)" fill="#94645f"/>
        <path id="Path_1307_-_Outline" data-name="Path 1307 - Outline" d="M248.231,125.922a1.142,1.142,0,0,1-.677-.224l-.025-.021a.863.863,0,0,1-.081-1.152c.1-.126.291-.35.593-.685l.817-.931.7-.817.543-.609.015-.018h-1.575a2.341,2.341,0,0,1-.728-.083l-.02-.006a.614.614,0,0,1-.384-.64.729.729,0,0,1,.261-.58l.008-.006a.967.967,0,0,1,.634-.2h3.23a1.7,1.7,0,0,1,.8.154l.023.012a.743.743,0,0,1,.359.705.9.9,0,0,1-.067.315,1.111,1.111,0,0,1-.136.251l-.01.012-.163.2-.246.27L249.9,124.33h2.183a.974.974,0,0,1,.673.21l.012.01a.773.773,0,0,1,.254.586.749.749,0,0,1-.246.571l-.018.015a1,1,0,0,1-.667.2h-3.781Zm-.365-.615a.639.639,0,0,0,.415.113h3.84a.5.5,0,0,0,.328-.091.249.249,0,0,0,.074-.185v-.014a.274.274,0,0,0-.085-.2.473.473,0,0,0-.325-.1h-3.331l2.953-3.3.243-.267.146-.177a.612.612,0,0,0,.071-.134l0-.005a.4.4,0,0,0,.03-.147v-.022a.242.242,0,0,0-.107-.227,1.2,1.2,0,0,0-.556-.1H248.3a.465.465,0,0,0-.3.092.232.232,0,0,0-.079.183v.008c0,.134.033.163.051.172a1.843,1.843,0,0,0,.564.061H251.1l-.259.389a5.071,5.071,0,0,1-.362.458l-.544.61-.7.816-.821.935c-.291.323-.483.544-.572.66A.364.364,0,0,0,247.866,125.307Z" transform="translate(-247.516 -120.197)" fill="#94645f"/>
      </g>
    </g>
    <g id="Group_5487" data-name="Group 5487" transform="translate(32.58 5.318)">
      <g id="Group_5486" data-name="Group 5486">
        <path id="Path_1308" data-name="Path 1308" d="M324.7,69.79a.909.909,0,0,0-.631-.2h-3.464l3.235-3.612.3-.336.2-.237a1.087,1.087,0,0,0,.131-.246.818.818,0,0,0,.057-.295.614.614,0,0,0-.3-.59,1.828,1.828,0,0,0-.86-.164H319.3a.884.884,0,0,0-.6.18.606.606,0,0,0-.213.483q0,.418.278.508a2.629,2.629,0,0,0,.819.1h2.621q-.164.229-.426.54l-.68.77-.884.983-1.056,1.171q-.549.614-.721.819a.77.77,0,0,0,.074,1.056,1.114,1.114,0,0,0,.753.221h4.774a.934.934,0,0,0,.655-.164.623.623,0,0,0,.213-.483A.655.655,0,0,0,324.7,69.79Z" transform="translate(-318.269 -64.112)" fill="#94645f"/>
        <path id="Path_1308_-_Outline" data-name="Path 1308 - Outline" d="M324.163,71.2a1.187,1.187,0,0,1-.131-.007h-4.751a1.373,1.373,0,0,1-.913-.271l-.019-.015a1.02,1.02,0,0,1-.1-1.4c.118-.14.362-.417.727-.827l1.942-2.155.676-.766.105-.127H319.6a2.879,2.879,0,0,1-.892-.108l-.009,0a.69.69,0,0,1-.452-.741.851.851,0,0,1,.3-.678l.01-.008a1.139,1.139,0,0,1,.758-.232h4.047a2.091,2.091,0,0,1,.971.187l.021.011a.867.867,0,0,1,.427.819,1.064,1.064,0,0,1-.075.374,1.329,1.329,0,0,1-.16.3l-.011.014-.2.246-.3.336-2.861,3.194h2.9a1.162,1.162,0,0,1,.795.251l.013.011a.9.9,0,0,1,.294.694.871.871,0,0,1-.3.67l-.02.016A1.178,1.178,0,0,1,324.163,71.2Zm-4.9-.507,4.815,0a.684.684,0,0,0,.469-.112.372.372,0,0,0,.118-.281v-.015a.4.4,0,0,0-.126-.308.661.661,0,0,0-.45-.137h-4.041l3.908-4.361.187-.226a.837.837,0,0,0,.1-.182.572.572,0,0,0,.041-.208v-.022a.365.365,0,0,0-.17-.344,1.589,1.589,0,0,0-.73-.136h-4.092a.637.637,0,0,0-.423.125.354.354,0,0,0-.12.28v.009c0,.226.07.258.1.269a2.379,2.379,0,0,0,.736.088H322.7l-.283.4c-.113.158-.26.345-.438.556l0,0-.68.77-1.943,2.156c-.361.4-.6.678-.715.812a.519.519,0,0,0,.043.7.869.869,0,0,0,.574.164Z" transform="translate(-318.269 -64.112)" fill="#94645f"/>
      </g>
    </g>
    <g id="Group_5489" data-name="Group 5489">
      <g id="Group_5488" data-name="Group 5488" transform="translate(0 0)">
        <path id="Path_1309" data-name="Path 1309" d="M36.187,36.945a.819.819,0,0,0-.9-.188,17.394,17.394,0,0,1-22.414-23.43.819.819,0,0,0-1.056-1.106A19.049,19.049,0,1,0,36.335,37.854.819.819,0,0,0,36.187,36.945ZM19.063,47.264a17.419,17.419,0,0,1-8.476-32.635A18.776,18.776,0,0,0,9.6,20.648,19.057,19.057,0,0,0,33.878,38.976,17.484,17.484,0,0,1,19.063,47.264Z" transform="translate(0 -12.158)" fill="#94645f"/>
        <path id="Path_1309_-_Outline" data-name="Path 1309 - Outline" d="M19.061,49.145h0a19.3,19.3,0,0,1-7.34-37.155,1.062,1.062,0,0,1,.411-.082,1.075,1.075,0,0,1,.457.1,1.069,1.069,0,0,1,.509,1.423A17.139,17.139,0,0,0,35.191,36.526a1.064,1.064,0,0,1,.407-.081,1.075,1.075,0,0,1,.769.326,1.064,1.064,0,0,1,.194,1.188,19.321,19.321,0,0,1-17.5,11.185Zm-6.93-36.737a.566.566,0,0,0-.22.044,18.8,18.8,0,0,0,7.149,36.193h0a18.821,18.821,0,0,0,17.047-10.9.564.564,0,0,0-.726-.761A17.644,17.644,0,0,1,12.646,13.221a.569.569,0,0,0-.271-.759A.572.572,0,0,0,12.132,12.408Zm6.932,35.106a17.669,17.669,0,0,1-8.6-33.1l.565-.315-.207.613a18.49,18.49,0,0,0-.97,5.939A18.807,18.807,0,0,0,33.809,38.736l.62-.177-.339.548a17.734,17.734,0,0,1-15.026,8.406ZM10.153,15.171A17.159,17.159,0,1,0,33.317,39.384,19.3,19.3,0,0,1,9.355,20.648,18.983,18.983,0,0,1,10.153,15.171Z" transform="translate(0 -12.158)" fill="#94645f"/>
      </g>
    </g>
  </g>
</svg>
