<svg width="149" height="140" viewBox="0 0 149 140" fill="none" xmlns="http://www.w3.org/2000/svg">
<path d="M148.905 52.8695V54.2387C136.315 54.2387 125.61 52.8342 116.17 49.9461C107.838 47.3956 101.56 44.0672 95.4854 40.843C86.7183 36.1938 78.437 31.8 65.2542 30.673L65.3833 29.3096C78.8685 30.4616 87.2804 34.9259 96.1869 39.6484C102.198 42.8389 108.416 46.1349 116.611 48.6415C125.905 51.4856 136.468 52.8695 148.905 52.8695Z" fill="#BF6C55"/>
<path d="M128.488 44.0026C124.516 44.7951 121.056 45.8018 117.791 46.8423C118.589 47.0815 119.396 47.3075 120.215 47.5262C127.428 45.3264 135.492 43.5682 148.905 43.5682V42.202C141.227 42.2005 134.55 42.789 128.488 44.0026Z" fill="#6A5E94"/>
<path d="M108.815 49.7496C102.036 51.8188 96.7867 52.8695 86.8911 52.8695V54.2388C96.979 54.2388 102.334 53.166 109.255 51.0513C109.908 50.8531 110.552 50.6521 111.191 50.4481C110.483 50.1898 109.791 49.9257 109.11 49.6586C109.013 49.6865 108.913 49.7202 108.815 49.7496Z" fill="#6A5E94"/>
<path d="M54.3797 34.9054C52.513 34.9054 50.9985 36.3451 50.9985 38.1178C50.9985 39.8892 52.513 41.3317 54.3797 41.3317C56.2435 41.3317 57.758 39.8892 57.758 38.1178C57.758 36.3451 56.2435 34.9054 54.3797 34.9054ZM54.3797 39.964C53.3084 39.964 52.4353 39.1363 52.4353 38.1178C52.4353 37.0994 53.3084 36.2717 54.3797 36.2717C55.4481 36.2717 56.3198 37.0979 56.3198 38.1178C56.3198 39.1363 55.4481 39.964 54.3797 39.964Z" fill="#6A5E94"/>
<path d="M31.9091 21.3306L31.2957 21.6227C31.2267 21.655 30.3917 22.0585 29.4554 22.8114C28.522 23.5686 27.486 24.6766 27.0193 26.1207C26.8652 26.6006 26.7815 27.0819 26.7566 27.553C26.9312 27.8259 27.1088 28.1077 27.2834 28.4027C27.3642 28.5362 27.4434 28.6727 27.5241 28.8107C27.6929 29.1027 27.8616 29.4006 28.0275 29.7117C28.3415 30.2943 28.6541 30.9092 28.955 31.5623C29.0518 31.7692 29.1487 31.982 29.2411 32.1963C29.9646 31.7883 31.5026 30.7918 32.4815 29.2451C32.7427 28.8371 32.9628 28.3895 33.1198 27.9052C33.1345 27.8641 33.1448 27.8201 33.158 27.7804C34.0077 24.9305 32.3186 22.0204 32.2437 21.8986L31.9091 21.3306ZM28.8376 30.8227C28.7055 30.5203 28.5543 30.1256 28.4311 29.6736C28.3195 29.2627 28.2271 28.8019 28.1962 28.3205C28.1566 27.7379 28.1992 27.123 28.3944 26.5242C28.9212 24.8997 30.4328 23.7535 31.303 23.2061C31.7007 24.1204 32.2731 25.8712 31.7462 27.5031C31.6949 27.663 31.6318 27.8215 31.5598 27.9742C31.3001 28.5436 30.9215 29.044 30.515 29.4681C29.9367 30.0771 29.2984 30.5335 28.8376 30.8227Z" fill="#6A5E94"/>
<path d="M119.982 29.8453C118.799 30.0522 117.634 30.2665 116.492 30.4954C125.147 32.4604 135.364 34.0292 148.904 34.0292V32.66C137.123 32.66 127.877 31.4596 119.982 29.8453Z" fill="#A15A79"/>
<path d="M79.1089 21.5669V22.9361C88.2516 22.9361 95.7405 24.9965 104.411 27.3813C104.625 27.4414 104.844 27.4987 105.058 27.5588C105.931 27.3211 106.815 27.0878 107.711 26.8618C106.732 26.5947 105.765 26.3276 104.811 26.0664C96.034 23.6523 88.4542 21.5669 79.1089 21.5669Z" fill="#A15A79"/>
<path d="M36.54 31.2791C34.9448 31.2791 33.6489 32.5118 33.6489 34.0292C33.6489 35.5452 34.9448 36.7779 36.54 36.7779C38.1337 36.7779 39.431 35.5452 39.431 34.0292C39.431 32.5132 38.1352 31.2791 36.54 31.2791ZM36.54 35.4087C35.7387 35.4087 35.0886 34.7879 35.0886 34.0292C35.0886 33.2676 35.7387 32.6468 36.54 32.6468C37.3412 32.6468 37.9914 33.2676 37.9914 34.0292C37.9914 34.7894 37.3427 35.4087 36.54 35.4087Z" fill="#A15A79"/>
<path d="M31.2678 45.6536C31.2223 45.228 31.1709 44.8112 31.1151 44.4003C30.4283 43.6974 29.4891 42.9885 28.3092 42.6422C25.6177 41.8556 22.8368 43.3143 22.7194 43.3774L22.1235 43.6959L22.4302 44.2814C22.4596 44.3387 22.8338 45.0416 23.5382 45.8253C24.2397 46.6119 25.2699 47.4836 26.6157 47.8754C27.1851 48.0413 27.7574 48.1102 28.3077 48.1102C29.5728 48.1102 30.7233 47.761 31.4424 47.4821C31.4218 47.24 31.4013 47.0008 31.3793 46.763C31.3485 46.3844 31.3118 46.0175 31.2678 45.6536ZM27.888 43.9512C29.2939 44.3622 30.3036 45.5186 30.8216 46.2406C29.9661 46.562 28.4427 46.9788 27.0398 46.5679C25.6339 46.157 24.6242 45.0005 24.1062 44.2785C24.9618 43.9542 26.4821 43.5374 27.888 43.9512Z" fill="#A15A79"/>
<path d="M71.2431 50.7973C66.8699 49.5367 63.091 47.8299 59.089 46.0234C53.8558 43.6577 48.1852 41.0969 40.3794 39.2566C40.0243 39.6235 39.6662 40.0094 39.311 40.413C41.0002 40.7931 42.6467 41.2246 44.2552 41.7C49.8024 43.3407 54.2109 45.3337 58.4726 47.2591C66.4135 50.8472 73.9155 54.2387 86.8915 54.2387V52.8695C81.1153 52.8695 76.1432 52.2105 71.2431 50.7973Z" fill="#C94728"/>
<path d="M31.5598 39.0379C33.6862 39.3211 35.7423 39.6675 37.7337 40.0754C38.08 39.6675 38.4293 39.2742 38.7786 38.897C36.4481 38.3966 33.9298 37.9578 31.1812 37.61C31.3132 38.0737 31.4394 38.5507 31.5598 39.0379Z" fill="#C94728"/>
<path d="M23.9706 36.9394C23.4584 36.1909 22.3475 34.854 20.6789 34.3639C18.3572 33.6829 15.9608 34.9406 15.861 34.9949L15.2622 35.3134L15.5689 35.896C15.5865 35.9312 15.7582 36.2526 16.0752 36.6796C16.2014 36.8484 16.3497 37.0362 16.5243 37.23C16.7723 37.5073 17.0673 37.7994 17.4136 38.0679C17.9052 38.4524 18.4952 38.7944 19.1791 38.9939C19.6707 39.1378 20.1638 39.195 20.6422 39.195C22.412 39.195 23.9163 38.4055 23.997 38.3644L24.0836 38.3189C26.1308 38.4465 28.1105 38.6212 30.0315 38.8501C29.9053 38.3629 29.7732 37.8859 29.6367 37.4237C27.8463 37.2256 25.9605 37.0612 23.9706 36.9394ZM19.6061 37.6878C18.956 37.497 18.4071 37.1111 17.9742 36.706C17.6792 36.4287 17.4386 36.1425 17.2581 35.9004C17.986 35.6421 19.1673 35.353 20.2548 35.6744C21.0047 35.8916 21.6181 36.3685 22.073 36.8396C22.2844 37.0583 22.4619 37.2725 22.6028 37.4633C21.8779 37.7172 20.6965 38.0092 19.6061 37.6878Z" fill="#C94728"/>
<path d="M90.5044 34.3771C91.0797 34.6574 91.6491 34.9406 92.2155 35.2297C107.435 29.8512 123.691 25.4662 148.905 25.4662V24.097C122.773 24.097 106.203 28.7564 90.5044 34.3771Z" fill="#4B918C"/>
<path d="M81.82 37.5734C79.4558 38.4554 77.0109 39.3667 74.5571 40.2575L75.0693 41.5372C77.5289 40.6435 79.9782 39.7322 82.3453 38.8472C83.2156 38.5229 84.08 38.1986 84.9473 37.8772C84.3441 37.6086 83.7336 37.343 83.1158 37.0876C82.6844 37.252 82.2544 37.4134 81.82 37.5734Z" fill="#4B918C"/>
<path d="M41.4789 42.7288C39.8837 42.7288 38.5879 43.9615 38.5879 45.4789C38.5879 46.9949 39.8837 48.2276 41.4789 48.2276C43.0742 48.2276 44.37 46.9949 44.37 45.4789C44.37 43.9615 43.0727 42.7288 41.4789 42.7288ZM41.4789 46.8584C40.6806 46.8584 40.0275 46.2406 40.0275 45.4789C40.0275 44.7173 40.6806 44.098 41.4789 44.098C42.2802 44.098 42.9333 44.7158 42.9333 45.4789C42.9333 46.2406 42.2802 46.8584 41.4789 46.8584Z" fill="#4B918C"/>
<path d="M33.0449 50.7885C33.02 49.5836 32.9598 48.4199 32.8703 47.3016C32.8556 47.1417 32.8424 46.9773 32.8277 46.8173C32.5768 43.9483 32.1321 41.3625 31.5598 39.0379C31.4395 38.5507 31.3132 38.0737 31.1812 37.6085C30.6147 35.5965 29.9528 33.7973 29.2411 32.1977C29.1501 31.982 29.0518 31.7707 28.9549 31.5638C28.6541 30.9107 28.343 30.2943 28.0274 29.7132C27.8616 29.4035 27.6928 29.1042 27.5241 28.8121C27.4434 28.6727 27.3641 28.5377 27.2834 28.4042C27.1088 28.1106 26.9312 27.8274 26.7565 27.5544C25.675 25.8697 24.6066 24.5607 23.6909 23.5804C23.6909 23.5774 23.6909 23.5774 23.6879 23.5745C23.4737 23.1827 22.0502 20.7671 19.5319 20.0304C16.8448 19.2467 14.0579 20.7025 13.942 20.7656L13.3462 21.0841L13.6529 21.6667C13.7131 21.7812 15.1498 24.4756 17.8383 25.2622C18.4077 25.428 18.9801 25.4926 19.5304 25.4926C20.9334 25.4926 22.1954 25.0655 22.8822 24.7764C23.7408 25.7259 24.7167 26.9645 25.6955 28.5274C25.9597 28.9413 26.2194 29.3801 26.4792 29.8423C27.6268 31.8837 28.7436 34.3902 29.6388 37.4236C29.7767 37.8859 29.9073 38.3629 30.0336 38.8501C30.4753 40.5465 30.8436 42.3912 31.1151 44.4003C31.1694 44.8112 31.2208 45.228 31.2678 45.6521C31.3103 46.0175 31.3485 46.3844 31.3793 46.7601C31.4013 46.9964 31.4218 47.237 31.4424 47.4792C31.5304 48.6224 31.5921 49.8096 31.6141 51.0453C32.0925 50.9851 32.5695 50.9206 33.0449 50.8545V50.7885ZM19.1077 21.3394C20.5136 21.7503 21.5233 22.9068 22.0413 23.6288C21.1858 23.9502 19.6654 24.367 18.2595 23.9531C16.8551 23.5422 15.8439 22.3873 15.3288 21.6638C16.1829 21.3424 17.7033 20.9256 19.1077 21.3394Z" fill="#4B918C"/>
<path d="M61.3003 22.6808V24.0632C66.1945 23.3852 71.8225 22.9361 79.1074 22.9361V21.5669C71.8343 21.5669 66.1989 22.0086 61.3003 22.6808Z" fill="#D79131"/>
<path d="M61.2578 44.7305C61.9021 45.0196 62.5375 45.3028 63.1729 45.5817C67.4097 44.2638 71.3369 42.8917 75.0688 41.5371L74.5566 40.2574C70.4182 41.7602 66.039 43.2835 61.2578 44.7305Z" fill="#D79131"/>
<path d="M65.3831 29.3096C63.3858 29.1409 61.2902 29.0455 59.1403 29.0293V5.98021H32.0026V17.9685H27.8744V0H12.7617H12.0426H0V30.2562V37.2446V54.2387H0.719093H1.44112C12.6869 54.2108 23.0066 53.5724 32.6732 52.2898C32.8024 52.2736 32.9345 52.2546 33.0621 52.2384C36.9438 51.716 40.7197 51.0893 44.4091 50.36C48.1396 49.6218 51.6338 48.8088 54.9372 47.9429C54.2622 47.6436 53.5812 47.3471 52.89 47.0507C50.1105 47.7507 47.1945 48.4111 44.1141 49.0216C40.5157 49.7348 36.8322 50.3453 33.0445 50.856C32.569 50.922 32.0921 50.9866 31.6137 51.0468C22.2625 52.2443 12.2892 52.843 1.43965 52.8709V38.5639C7.13223 38.1662 12.4799 38.0033 17.4153 38.0708C17.0689 37.8008 16.7739 37.5102 16.5245 37.2329C16.3498 37.0392 16.2016 36.8513 16.0754 36.6825C11.5304 36.6576 6.6861 36.8264 1.43965 37.1918V30.2782C4.69171 30.3736 7.7119 30.4162 10.5222 30.4162C16.7314 30.4162 21.947 30.2004 26.4788 29.8424C26.2175 29.3801 25.9578 28.9413 25.6936 28.5274C19.2702 29.0088 11.4732 29.1996 1.43965 28.9061V1.36921H12.0426H12.7617H26.4391V19.3348H33.4437V7.34942H57.7035V30.3912H58.4212C60.7766 30.3912 63.0762 30.4866 65.254 30.6715L65.3831 29.3096Z" fill="#D79131"/>
<path d="M33.1575 27.782C33.1457 27.823 33.134 27.8671 33.1193 27.9067C32.9623 28.391 32.7422 28.8371 32.481 29.2451C38.8897 28.4746 43.8969 27.4136 48.8249 26.3702C51.0556 25.8991 53.251 25.4339 55.5404 25.0068V23.6097C53.138 24.0559 50.8443 24.5402 48.5138 25.0333C43.8456 26.0238 39.1084 27.0262 33.1575 27.782Z" fill="#D79131"/>
<path d="M50.0603 15.4267L46.9829 18.6465H53.1378L50.0603 15.4267Z" fill="#D79131"/>
<path d="M42.6716 13.5101H48.8294L45.752 10.2903L42.6716 13.5101Z" fill="#D79131"/>
<path d="M38.3643 18.6465H44.5176L41.4402 15.4267L38.3643 18.6465Z" fill="#D79131"/>
<path d="M43.5685 32.0554C41.8602 33.4379 41.4699 35.6891 41.3848 36.3993C40.5453 37.0964 39.6619 37.9461 38.7799 38.8956C38.4306 39.2743 38.0813 39.6661 37.735 40.0741C35.8507 42.2842 34.0647 44.8729 32.8716 47.3017C32.9611 48.4199 33.0213 49.5837 33.0462 50.7885C33.8534 47.6744 36.5331 43.5595 39.3126 40.4116C39.6677 40.008 40.0258 39.6221 40.381 39.2552C41.0766 38.5361 41.7663 37.8948 42.4223 37.3606C42.4854 37.3635 42.5573 37.3635 42.6307 37.3635C43.1311 37.3635 43.8796 37.3224 44.6897 37.1316C45.4968 36.9409 46.3641 36.5975 47.1023 36.0016C49.1084 34.3771 49.2977 31.5535 49.3036 31.4347L49.3432 30.7845L48.6623 30.717C48.5346 30.7053 45.5746 30.4279 43.5685 32.0554ZM46.1675 34.9597C45.1622 35.7742 43.7622 35.9591 42.9095 35.9914C43.0783 35.193 43.4965 33.9089 44.4974 33.0945C45.5027 32.2829 46.9042 32.0951 47.7553 32.0657C47.5895 32.8611 47.1713 34.1496 46.1675 34.9597Z" fill="#D79131"/>
<path d="M18.3872 9.88239L15.3098 13.1022H21.4647L18.3872 9.88239Z" fill="#D79131"/>
<path d="M14.075 4.74451L10.999 7.96722H17.1524L14.075 4.74451Z" fill="#D79131"/>
<path d="M6.68799 13.1022H12.8428L9.76541 9.88239L6.68799 13.1022Z" fill="#D79131"/>
<path d="M147.445 135.561V136.974H102.025C102.213 136.56 102.362 136.132 102.468 135.69C102.48 135.647 102.489 135.605 102.496 135.561H147.445Z" fill="#4D6075"/>
<path d="M102.495 135.561C102.487 135.603 102.478 135.647 102.467 135.69C102.362 136.132 102.214 136.56 102.026 136.974H101.443V135.561H102.495Z" fill="#4D6075"/>
<path d="M95.7027 135.912V136.543C95.7027 136.697 95.6719 136.805 95.6088 136.874C95.5457 136.94 95.4268 136.974 95.2463 136.974H95.0438C94.8632 136.974 94.7503 136.937 94.696 136.865C94.6417 136.793 94.6138 136.685 94.6138 136.543V135.897C94.6138 135.771 94.6446 135.674 94.7018 135.608C94.762 135.54 94.8765 135.505 95.0438 135.505H95.2463C95.4268 135.505 95.5457 135.536 95.6088 135.599C95.6704 135.663 95.7027 135.766 95.7027 135.912Z" fill="#4D6075"/>
<path d="M95.2461 135.506H96.2822C96.2734 135.326 96.2675 135.15 96.2675 134.975V134.459C96.2675 133.864 96.2939 133.263 96.3423 132.649C96.3908 132.036 96.4568 131.43 96.5361 130.84H99.0514C99.5284 130.84 99.9818 130.925 100.419 131.096C100.854 131.265 101.235 131.507 101.561 131.821C101.89 132.135 102.149 132.513 102.343 132.951C102.534 133.392 102.631 133.885 102.631 134.431C102.631 134.787 102.588 135.164 102.497 135.561H101.444V136.974H95.2461C95.4266 136.974 95.5455 136.94 95.6086 136.874C95.6717 136.805 95.7025 136.697 95.7025 136.543V135.911C95.7025 135.766 95.6717 135.663 95.6086 135.6C95.5455 135.537 95.4251 135.506 95.2461 135.506ZM100.457 134.855C100.497 134.626 100.517 134.398 100.517 134.175C100.517 133.825 100.472 133.53 100.378 133.293C100.284 133.057 100.167 132.865 100.027 132.723C99.8879 132.58 99.7412 132.474 99.5841 132.414C99.4271 132.351 99.2848 132.32 99.1586 132.32H98.5128C98.4673 132.607 98.4336 132.9 98.413 133.199C98.3896 133.499 98.3793 133.816 98.3793 134.147C98.3793 134.595 98.4057 135.049 98.4585 135.506H100.262C100.352 135.301 100.418 135.084 100.457 134.855Z" fill="#4D6075"/>
<path d="M94.694 136.865C94.7483 136.937 94.8627 136.974 95.0418 136.974H94.9757C94.7585 136.974 94.5707 136.934 94.4019 136.854C94.2361 136.772 94.0908 136.663 93.9646 136.528C93.8384 136.394 93.7386 136.242 93.6623 136.071C93.5874 135.9 93.5361 135.727 93.5082 135.546C93.4994 135.691 93.4847 135.843 93.4686 136.005C93.4509 136.165 93.4319 136.32 93.4084 136.468C93.3849 136.616 93.3629 136.751 93.3394 136.873C93.3159 136.993 93.2939 137.09 93.2646 137.16C93.1046 137.617 92.8815 138.022 92.5998 138.377C92.3165 138.731 91.9893 139.027 91.6121 139.265C91.235 139.504 90.8182 139.685 90.3677 139.811C89.9142 139.937 89.4372 139.999 88.9353 139.999C88.228 139.999 87.619 139.896 87.1141 139.69C86.6064 139.482 86.1925 139.213 85.8697 138.883C85.5468 138.552 85.3076 138.176 85.1564 137.753C85.0023 137.331 84.9275 136.905 84.9275 136.478C84.9275 135.876 85.0361 135.303 85.2504 134.754C85.4646 134.208 85.7669 133.721 86.1529 133.289C86.2791 133.323 86.4009 133.358 86.5212 133.389C86.6445 133.42 86.7663 133.455 86.8925 133.489C86.6328 133.974 86.4669 134.419 86.3936 134.821C86.3216 135.223 86.2879 135.546 86.2879 135.788C86.2879 136.165 86.3539 136.504 86.4875 136.804C86.624 137.103 86.8074 137.354 87.0407 137.558C87.2726 137.761 87.5485 137.915 87.8655 138.02C88.1854 138.129 88.5215 138.183 88.881 138.183C89.3462 138.183 89.7395 138.114 90.0565 137.975C90.3765 137.835 90.6333 137.643 90.8299 137.395C91.0266 137.15 91.1719 136.858 91.2614 136.522C91.3524 136.184 91.3949 135.818 91.3949 135.411V132.466H93.5361V134.082C93.5361 134.492 93.608 134.836 93.7562 135.103C93.9044 135.371 94.1759 135.505 94.5692 135.505H95.0403C94.8715 135.505 94.7571 135.539 94.6984 135.608C94.6411 135.674 94.6103 135.771 94.6103 135.895V136.541C94.6118 136.685 94.6397 136.794 94.694 136.865Z" fill="#4D6075"/>
<path d="M89.8591 128.17C90.0499 128.361 90.1467 128.599 90.1467 128.875C90.1467 129.155 90.0499 129.391 89.8591 129.588C89.6654 129.785 89.4247 129.884 89.14 129.884C88.8524 129.884 88.6146 129.785 88.4268 129.588C88.2389 129.391 88.1436 129.154 88.1436 128.875C88.1436 128.597 88.2375 128.361 88.4268 128.17C88.6146 127.977 88.8524 127.883 89.14 127.883C89.4247 127.881 89.6654 127.975 89.8591 128.17Z" fill="#4D6075"/>
<path d="M81.0402 130.838V136.422C81.0402 137.05 80.9742 137.582 80.8465 138.02C80.7159 138.461 80.5354 138.82 80.3065 139.098C80.0775 139.376 79.8119 139.578 79.5066 139.702C79.2014 139.827 78.8785 139.89 78.5395 139.89C78.2343 139.89 77.9114 139.85 77.5695 139.765C77.2305 139.68 76.89 139.56 76.5481 139.409L76.7506 138.575C77.0016 138.627 77.2525 138.654 77.5049 138.654C77.7368 138.654 77.9393 138.624 78.1096 138.56C78.2813 138.497 78.4236 138.386 78.541 138.232C78.6555 138.072 78.7435 137.858 78.8037 137.583C78.8609 137.309 78.8888 136.964 78.8888 136.541V130.838H81.0402Z" fill="#4D6075"/>
<path d="M76.1597 130.838V136.179C76.1597 136.601 76.1318 136.986 76.0775 137.335C76.0056 137.837 75.8691 138.251 75.6695 138.58C75.467 138.908 75.2263 139.171 74.9504 139.368C74.6701 139.564 74.3678 139.702 74.0391 139.776C73.7133 139.852 73.3904 139.89 73.0793 139.89C72.6904 139.89 72.3147 139.85 71.9405 139.77C71.5692 139.691 71.2493 139.588 70.9778 139.462L71.1803 138.613C71.5223 138.685 71.8539 138.719 72.1768 138.719C72.4365 138.719 72.6757 138.698 72.8959 138.653C73.116 138.607 73.3068 138.519 73.4667 138.39C73.6296 138.26 73.7573 138.082 73.8527 137.859C73.9437 137.633 73.998 137.34 74.0068 136.971H70.4172C70.2367 136.557 70.0826 136.132 69.9579 135.693C69.8317 135.253 69.77 134.833 69.77 134.428C69.77 133.882 69.8698 133.389 70.0665 132.95C70.2631 132.511 70.5258 132.133 70.8545 131.82C71.1803 131.506 71.5619 131.264 71.9963 131.095C72.4336 130.923 72.8871 130.838 73.364 130.838H76.1597ZM74.0185 135.507V132.321H73.2672C73.141 132.321 72.9986 132.351 72.8416 132.414C72.6845 132.475 72.5363 132.58 72.3984 132.723C72.259 132.865 72.1416 133.057 72.0476 133.294C71.9537 133.53 71.9082 133.825 71.9082 134.175C71.9082 134.409 71.9229 134.635 71.9537 134.855C71.9845 135.075 72.0506 135.292 72.1474 135.505H74.0185V135.507Z" fill="#4D6075"/>
<path d="M68.3434 130.838V136.973H65.6402C65.4142 136.973 65.2176 136.933 65.0488 136.852C64.8771 136.77 64.726 136.661 64.5983 136.526C64.4677 136.391 64.365 136.24 64.2872 136.07C64.2123 135.898 64.1566 135.731 64.1184 135.559L64.5234 135.197C64.6746 135.402 64.9138 135.505 65.2367 135.505H66.1759V130.837H68.3434V130.838Z" fill="#4D6075"/>
<path d="M65.0959 127.619C65.2896 127.809 65.3836 128.047 65.3836 128.323C65.3836 128.599 65.2896 128.837 65.0959 129.027C64.9022 129.221 64.6615 129.319 64.3768 129.319C64.0892 129.319 63.8514 129.223 63.6636 129.027C63.4758 128.837 63.3804 128.599 63.3804 128.323C63.3804 128.046 63.4743 127.809 63.6636 127.619C63.8514 127.425 64.0892 127.326 64.3768 127.326C64.6615 127.328 64.9007 127.425 65.0959 127.619Z" fill="#4D6075"/>
<path d="M64.4647 135.103C64.4823 135.137 64.5014 135.169 64.5249 135.197L64.1199 135.559C64.023 136.045 63.8175 136.402 63.5035 136.629C63.1894 136.858 62.7668 136.971 62.2385 136.971H61.3902C61.1642 136.971 60.9676 136.932 60.7988 136.851C60.6271 136.769 60.476 136.66 60.3483 136.525C60.2177 136.391 60.1135 136.239 60.0372 136.069C59.9623 135.897 59.9066 135.73 59.8684 135.558L60.2734 135.195C60.4246 135.401 60.6638 135.504 60.9867 135.504H61.4431C61.6749 135.504 61.8422 135.435 61.945 135.295C62.0477 135.159 62.102 134.93 62.102 134.616V131.659H64.2402V134.08C64.2417 134.493 64.3165 134.836 64.4647 135.103Z" fill="#4D6075"/>
<path d="M63.8586 125.477C64.0494 125.671 64.1463 125.909 64.1463 126.185C64.1463 126.462 64.0494 126.698 63.8586 126.889C63.6649 127.083 63.4242 127.181 63.1366 127.181C62.8592 127.181 62.6259 127.084 62.4322 126.889C62.2385 126.698 62.1445 126.461 62.1445 126.185C62.1445 125.909 62.2385 125.671 62.4322 125.477C62.6259 125.287 62.8607 125.188 63.1366 125.188C63.4257 125.19 63.6649 125.287 63.8586 125.477Z" fill="#4D6075"/>
<path d="M62.635 127.619C62.8258 127.809 62.9226 128.047 62.9226 128.323C62.9226 128.599 62.8258 128.84 62.635 129.036C62.4413 129.233 62.2006 129.33 61.9159 129.33C61.6356 129.33 61.4022 129.233 61.2085 129.036C61.0178 128.84 60.9209 128.599 60.9209 128.323C60.9209 128.046 61.0178 127.809 61.2085 127.619C61.4022 127.425 61.6371 127.326 61.9159 127.326C62.2006 127.328 62.4413 127.425 62.635 127.619Z" fill="#4D6075"/>
<path d="M56.3709 135.912V136.543C56.3709 136.697 56.3401 136.805 56.277 136.874C56.2139 136.94 56.095 136.974 55.9145 136.974H55.712C55.5344 136.974 55.4185 136.937 55.3642 136.865C55.3099 136.793 55.2849 136.685 55.2849 136.543V135.897C55.2849 135.771 55.3128 135.674 55.37 135.608C55.4302 135.54 55.5447 135.505 55.712 135.505H55.9145C56.095 135.505 56.2139 135.536 56.277 135.599C56.3401 135.663 56.3709 135.766 56.3709 135.912Z" fill="#4D6075"/>
<path d="M59.8681 135.561C59.7712 136.047 59.5658 136.403 59.2517 136.631C58.9377 136.86 58.515 136.973 57.9867 136.973H55.9146C56.0951 136.973 56.2139 136.939 56.277 136.873C56.3401 136.804 56.371 136.695 56.371 136.541V135.91C56.371 135.765 56.3401 135.662 56.277 135.599C56.2139 135.536 56.0951 135.505 55.9146 135.505H57.1928C57.4246 135.505 57.5919 135.436 57.6947 135.297C57.7974 135.16 57.8517 134.931 57.8517 134.617V132.454H59.9899V134.081C59.9899 134.492 60.0647 134.836 60.213 135.103C60.2306 135.138 60.2497 135.169 60.2731 135.197L59.8681 135.561Z" fill="#4D6075"/>
<path d="M50.5285 128.17C50.7193 128.361 50.8162 128.599 50.8162 128.875C50.8162 129.155 50.7193 129.391 50.5285 129.588C50.3348 129.785 50.0941 129.884 49.8094 129.884C49.5218 129.884 49.2841 129.785 49.0962 129.588C48.9084 129.391 48.813 129.154 48.813 128.875C48.813 128.597 48.9069 128.361 49.0962 128.17C49.2841 127.977 49.5218 127.883 49.8094 127.883C50.0941 127.881 50.3334 127.975 50.5285 128.17Z" fill="#4D6075"/>
<path d="M47.0656 134.821C46.9908 135.223 46.957 135.546 46.957 135.79C46.957 136.167 47.0231 136.506 47.1595 136.805C47.2931 137.105 47.4765 137.356 47.7099 137.56C47.9417 137.762 48.2176 137.916 48.5376 138.022C48.8545 138.13 49.1936 138.185 49.5516 138.185C50.0198 138.185 50.4101 138.116 50.7301 137.976C51.047 137.837 51.3039 137.646 51.5035 137.397C51.7001 137.152 51.8425 136.859 51.932 136.523C52.023 136.186 52.0655 135.819 52.0655 135.413V132.467H54.2067V134.083C54.2067 134.494 54.2815 134.837 54.4268 135.104C54.575 135.373 54.8465 135.506 55.2398 135.506H55.7109C55.5421 135.506 55.4276 135.542 55.3689 135.609C55.3117 135.675 55.2838 135.772 55.2838 135.898V136.543C55.2838 136.685 55.3102 136.793 55.3631 136.865C55.4174 136.937 55.5348 136.974 55.7109 136.974H55.6448C55.4276 136.974 55.2398 136.934 55.074 136.854C54.9052 136.771 54.7599 136.663 54.6337 136.528C54.5075 136.394 54.4077 136.242 54.3314 136.071C54.2565 135.9 54.2052 135.727 54.1773 135.546C54.1685 135.691 54.1538 135.842 54.1377 136.005C54.1201 136.165 54.101 136.319 54.0775 136.468C54.054 136.616 54.032 136.749 54.0085 136.873C53.9851 136.993 53.963 137.09 53.9337 137.16C53.7737 137.617 53.5507 138.022 53.2689 138.377C52.9857 138.731 52.6584 139.027 52.2812 139.265C51.9041 139.504 51.4902 139.685 51.0368 139.811C50.5833 139.937 50.1064 140 49.6045 140C48.8971 140 48.2881 139.897 47.7832 139.692C47.2755 139.483 46.8616 139.215 46.5388 138.883C46.2159 138.552 45.9767 138.176 45.8256 137.753C45.7346 137.493 45.6685 137.237 45.6318 136.974H46.3054V135.561H45.6861C45.7404 135.283 45.8167 135.015 45.9209 134.754C46.1352 134.209 46.4375 133.72 46.8235 133.289C46.9497 133.323 47.0715 133.358 47.1918 133.389C47.3151 133.42 47.4369 133.455 47.5631 133.489C47.3034 133.973 47.1375 134.418 47.0656 134.821Z" fill="#4D6075"/>
<path d="M46.3065 135.561V136.974H45.6329C45.6094 136.808 45.5991 136.642 45.5991 136.478C45.5991 136.164 45.627 135.859 45.6872 135.562H46.3065V135.561Z" fill="#4D6075"/>
<path d="M0.305176 135.561H45.6873C45.6271 135.857 45.5992 136.162 45.5992 136.476C45.5992 136.642 45.611 136.808 45.633 136.973H0.305176V135.561Z" fill="#4D6075"/>
<path d="M129.551 99.7412L136.032 118.989H131.975L130.097 113.055H123.942L122.147 118.989H118.741L125.467 99.7412H129.551ZM129.415 110.74L127.59 104.969C127.445 104.552 127.337 104.201 127.265 103.921C127.19 103.638 127.136 103.407 127.102 103.224C127.047 103.027 127.011 102.852 126.99 102.707C126.918 102.982 126.848 103.244 126.773 103.498C126.719 103.715 126.656 103.946 126.582 104.192C126.51 104.437 126.449 104.66 126.394 104.86L124.625 110.74H129.415Z" fill="#4D6075"/>
<path d="M102.133 110.577L108.614 118.989H104.041L98.4026 111.176H97.1787V118.989H93.4482V99.8497C93.7931 99.8307 94.185 99.813 94.6193 99.7954C94.9848 99.7749 95.4162 99.7588 95.9122 99.7411C96.4112 99.7206 96.9513 99.7133 97.5339 99.7133C98.4247 99.7133 99.2641 99.7367 100.052 99.7822C100.843 99.8277 101.536 99.9216 102.136 100.068C103.335 100.377 104.296 100.959 105.023 101.81C105.748 102.664 106.113 103.717 106.113 104.97C106.113 106.115 105.902 107.048 105.485 107.773C105.068 108.501 104.615 109.072 104.123 109.489C103.52 109.979 102.858 110.341 102.133 110.577ZM101.985 107.132C102.139 106.686 102.217 106.129 102.217 105.459C102.217 104.731 102.12 104.128 101.929 103.646C101.741 103.166 101.473 102.785 101.126 102.505C100.782 102.223 100.378 102.028 99.9157 101.919C99.4505 101.807 98.9486 101.753 98.4026 101.753C98.1678 101.753 97.9712 101.759 97.8171 101.768C97.663 101.777 97.5397 101.782 97.4487 101.782C97.3401 101.799 97.2492 101.809 97.1773 101.809V109.245C97.2492 109.263 97.3401 109.271 97.4487 109.271C97.5397 109.289 97.663 109.301 97.8171 109.301H98.3762C98.793 109.301 99.11 109.289 99.3301 109.271C99.5473 109.255 99.7645 109.217 99.9802 109.163C100.2 109.108 100.44 109.012 100.702 108.877C100.965 108.74 101.207 108.526 101.424 108.237C101.643 107.946 101.831 107.578 101.985 107.132Z" fill="#4D6075"/>
<path d="M79.5623 107.229C79.6342 107.936 79.6709 108.561 79.6709 109.107C79.6709 111.302 79.2483 113.163 78.403 114.688C77.5606 116.213 76.3396 117.349 74.7429 118.094C73.8697 118.49 72.8307 118.75 71.6229 118.868C70.4152 118.988 69.1589 119.045 67.8514 119.045C67.2717 119.045 66.7096 119.042 66.1637 119.033C65.6178 119.022 65.1394 119 64.7196 118.964C64.231 118.945 63.7569 118.919 63.3035 118.882V99.8498C63.7232 99.8293 64.3249 99.8043 65.1159 99.7662C65.9039 99.7295 66.9092 99.7119 68.1243 99.7119C69.0665 99.7119 69.9177 99.7353 70.6676 99.7808C71.4219 99.8263 72.1058 99.9041 72.7251 100.013C73.3414 100.121 73.8962 100.261 74.3863 100.435C74.875 100.607 75.3285 100.821 75.7452 101.075C76.6536 101.621 77.3669 102.237 77.8834 102.927C78.4 103.615 78.7919 104.329 79.0545 105.062C79.3216 105.799 79.4875 106.521 79.5623 107.229ZM75.3285 112.048C75.5002 111.286 75.5853 110.387 75.5853 109.354C75.5853 107.738 75.3505 106.348 74.8779 105.186C74.4069 104.023 73.7362 103.208 72.863 102.736C72.3919 102.483 71.8695 102.286 71.2986 102.151C70.7277 102.014 69.9426 101.945 68.9432 101.945C68.7436 101.945 68.5382 101.951 68.3298 101.96C68.1214 101.969 67.9365 101.984 67.7736 102C67.574 102.02 67.3832 102.028 67.1998 102.028V116.678C67.2908 116.696 67.4287 116.712 67.6078 116.732C67.753 116.75 67.9497 116.759 68.1933 116.759H69.1061C69.9764 116.759 70.691 116.71 71.2443 116.611C71.7976 116.511 72.3097 116.335 72.7823 116.079C73.1081 115.896 73.4383 115.636 73.7758 115.303C74.1133 114.967 74.4098 114.533 74.6754 113.995C74.9381 113.458 75.1538 112.81 75.3285 112.048Z" fill="#4D6075"/>
<path d="M49.8553 116.512V118.989H39.1555V99.7676H49.5295V102.22H43.0489V107.799H48.7928V110.278H43.0489V116.512H49.8553Z" fill="#4D6075"/>
<path d="M24.5195 110.454C25.0904 111.225 25.3766 112.23 25.3766 113.463C25.3766 115.278 24.7969 116.688 23.6346 117.696C22.4723 118.703 20.7861 119.209 18.5702 119.209C17.6794 119.209 16.9001 119.164 16.2265 119.072C15.5558 118.981 14.985 118.881 14.5139 118.772C13.968 118.643 13.4866 118.501 13.0698 118.335L13.9401 115.831C14.2483 115.994 14.6019 116.139 15.0026 116.266C15.3474 116.377 15.7642 116.477 16.2558 116.565C16.7475 116.656 17.3095 116.701 17.9435 116.701C19.0882 116.701 20.001 116.511 20.6805 116.131C21.3599 115.748 21.7019 115.068 21.7019 114.086C21.7019 113.507 21.5478 113.036 21.2396 112.67C20.9285 112.308 20.4398 111.916 19.7662 111.499L16.9338 109.811C16.5171 109.575 16.115 109.312 15.7231 109.02C15.3328 108.73 14.9776 108.395 14.6606 108.012C14.3436 107.632 14.0898 107.193 13.899 106.693C13.7082 106.194 13.6128 105.608 13.6128 104.935C13.6128 103.177 14.1587 101.838 15.2462 100.918C16.3366 100.001 17.8951 99.5445 19.9306 99.5445C20.7641 99.5445 21.492 99.5841 22.1084 99.6663C22.7247 99.747 23.2413 99.8351 23.6581 99.9231C24.1321 100.032 24.5313 100.159 24.8571 100.306L24.0118 102.81C23.7403 102.667 23.4321 102.538 23.0872 102.43C22.779 102.339 22.399 102.252 21.9455 102.17C21.492 102.091 20.9725 102.047 20.3928 102.047C20.1023 102.047 19.7706 102.069 19.3993 102.116C19.0251 102.161 18.6773 102.261 18.3486 102.415C18.0228 102.569 17.7513 102.792 17.5326 103.083C17.3154 103.373 17.2068 103.771 17.2068 104.282C17.2068 104.879 17.4064 105.356 17.8056 105.71C18.2047 106.063 18.7932 106.47 19.5754 106.923L21.9704 108.312C23.099 108.97 23.9487 109.684 24.5195 110.454Z" fill="#4D6075"/>
<path d="M142.828 68.2537V84.1618H139.025C138.237 84.1618 137.567 84.0253 137.013 83.748C136.46 83.4706 136.023 83.0773 135.703 82.5666C135.624 82.4404 135.549 82.3068 135.48 82.1704C135.271 81.7565 135.112 81.2913 135.003 80.7777C134.858 80.0923 134.783 79.3424 134.783 78.525V71.0523H129.89V81.2341C129.89 82.3421 129.745 83.1066 129.453 83.5293C129.159 83.9519 128.604 84.1633 127.791 84.1633H125.605C124.82 84.1633 124.149 84.0268 123.596 83.7494C123.043 83.4721 122.605 83.0788 122.285 82.5681C122.206 82.4418 122.131 82.3083 122.059 82.1718C121.851 81.758 121.694 81.2928 121.585 80.7791C121.44 80.0938 121.365 79.3439 121.365 78.5265V73.7614H116.515V81.2341C116.515 82.3421 116.37 83.1066 116.078 83.5293C115.787 83.9519 115.219 84.1633 114.374 84.1633H108.78H107.424H102.661H100.868H96.5403H67.6533H62.7576H61.5336H60.5739C59.6112 84.1633 58.8378 84.0121 58.2566 83.7039C57.674 83.3987 57.2382 82.9482 56.9461 82.3509C56.9094 82.276 56.8742 82.1997 56.8405 82.119C56.6086 81.5628 56.4516 80.8892 56.3782 80.0982C56.2901 79.1957 56.2476 78.1478 56.2476 76.9518C56.2476 75.4358 56.0876 74.0314 55.7648 72.7356C55.4448 71.4368 54.9062 70.3156 54.149 69.3705C53.3903 68.4225 52.385 67.6799 51.1347 67.1413C49.8814 66.6013 48.3376 66.3342 46.5017 66.3342H40.9045V69.5657H45.4494C46.6455 69.5657 47.6273 69.7711 48.4007 70.1791C49.1711 70.5871 49.7772 71.155 50.2131 71.8829C50.6504 72.6108 50.9498 73.484 51.1097 74.5054C51.2697 75.5253 51.3489 76.6465 51.3489 77.869V81.2796C51.3489 82.298 51.2257 83.0347 50.9777 83.4853C50.7296 83.9358 50.1382 84.1618 49.2078 84.1618H38.4111V87.6589H49.8183C50.5183 87.6589 51.2169 87.6017 51.9169 87.4858C52.6169 87.3698 53.2582 87.1204 53.8408 86.7403C54.4234 86.3631 54.9253 85.8377 55.348 85.1671C55.7706 84.4993 56.0392 83.6085 56.1551 82.5005C56.2432 82.9687 56.4031 83.4999 56.6379 84.0958C56.8698 84.693 57.1971 85.2551 57.6197 85.779C58.0424 86.3015 58.5736 86.7476 59.2149 87.1116C59.8166 87.455 60.5709 87.6281 61.4588 87.6487C61.4852 87.6487 61.5043 87.6575 61.5307 87.6575H61.6188H62.7546H67.6503H96.5417H100.869H102.663H107.425H108.781H115.03C116.108 87.6575 117.026 87.5357 117.784 87.2862C118.54 87.0382 119.161 86.6889 119.639 86.2354C120.122 85.7849 120.493 85.2448 120.756 84.6197C121.019 83.9945 121.193 83.2872 121.281 82.4991C121.572 83.9857 122.175 85.217 123.094 86.1929C124.013 87.1688 125.244 87.6575 126.788 87.6575H128.446C130.605 87.6575 132.134 87.1835 133.036 86.2369C133.939 85.2918 134.492 84.0444 134.698 82.5005C134.988 83.9872 135.594 85.2184 136.51 86.1943C137.429 87.1703 138.66 87.6589 140.204 87.6589H147.766V68.2537H142.828Z" fill="#4D6075"/>
<path d="M28.1889 83.7289C28.1889 85.3901 28.0862 86.7432 27.8837 87.7939C27.6782 88.8418 27.3583 89.6577 26.921 90.2403C26.4836 90.8229 25.9362 91.225 25.2817 91.4422C24.6257 91.6624 23.8318 91.771 22.8984 91.771C22.5213 91.771 22.0913 91.7475 21.6114 91.7049C21.1286 91.6624 20.7001 91.5655 20.3214 91.4232L19.9736 92.559C20.7866 93.0815 21.698 93.4894 22.7033 93.7815C23.7115 94.0721 24.6786 94.2188 25.6119 94.2188C26.309 94.2188 27.0956 94.0735 27.9702 93.7815C28.8434 93.4894 29.6608 92.9597 30.4196 92.1863C31.1753 91.4158 31.8181 90.3445 32.3406 88.9753C32.866 87.6046 33.1286 85.8289 33.1286 83.6423V66.3048H28.1904V83.7289H28.1889Z" fill="#4D6075"/>
<path d="M18.1374 68.2537H11.4498C9.99402 68.2537 8.60133 68.5252 7.27615 69.0608C5.95096 69.6009 4.78427 70.3743 3.77901 71.378C2.77374 72.3833 1.97247 73.5926 1.37518 75.0058C0.777893 76.419 0.478516 77.9966 0.478516 79.7474C0.478516 81.0579 0.632608 82.3993 0.937855 83.767C1.2431 85.1377 1.67456 86.4335 2.22782 87.6574H18.5278C18.673 86.2589 18.7904 84.9117 18.8785 83.6158C18.9665 82.32 19.0091 81.0579 19.0091 79.834C19.0091 77.7956 18.9211 75.8071 18.7464 73.8714C18.5747 71.9342 18.3678 70.0617 18.1374 68.2537ZM14.0723 81.4307C14.0121 82.3215 13.9123 83.2313 13.7671 84.1618H6.42498C6.017 83.3165 5.72496 82.4521 5.54886 81.5613C5.37422 80.6734 5.2891 79.7768 5.2891 78.8757C5.2891 77.505 5.49162 76.3691 5.8996 75.4651C6.30757 74.5626 6.80213 73.8347 7.38328 73.2814C7.96589 72.7282 8.59399 72.3334 9.26466 72.103C9.93239 71.8697 10.5458 71.7523 11.1005 71.7523H13.5895C13.7671 72.8881 13.9035 74.0387 14.0063 75.2054C14.109 76.3706 14.1574 77.5637 14.1574 78.7876C14.1574 79.6608 14.1295 80.5428 14.0723 81.4307Z" fill="#4D6075"/>
<path d="M14.3347 64.3133C15.0626 64.3133 15.6673 64.0653 16.1471 63.5693C16.63 63.0747 16.8692 62.4642 16.8692 61.7334C16.8692 61.0657 16.63 60.483 16.1471 59.987C15.6673 59.491 15.0626 59.2444 14.3347 59.2444C13.6347 59.2444 13.036 59.4895 12.5414 59.987C12.0454 60.483 11.7988 61.0657 11.7988 61.7334C11.7988 62.4642 12.0439 63.0747 12.5414 63.5693C13.036 64.0653 13.6347 64.3133 14.3347 64.3133Z" fill="#4D6075"/>
<path d="M7.21022 64.3133C7.91023 64.3133 8.51486 64.0653 9.02556 63.5693C9.53333 63.0747 9.78722 62.4642 9.78722 61.7334C9.78722 61.0657 9.53333 60.483 9.02556 59.987C8.51486 59.491 7.90877 59.2444 7.21022 59.2444C6.5102 59.2444 5.91438 59.4895 5.41689 59.987C4.92233 60.483 4.67432 61.0657 4.67432 61.7334C4.67432 62.4642 4.92233 63.0747 5.41689 63.5693C5.91438 64.0653 6.5102 64.3133 7.21022 64.3133Z" fill="#4D6075"/>
</svg>
